<mxfile host="app.diagrams.net" modified="2022-06-28T11:21:55.004Z" agent="5.0 (Windows NT 10.0; Win64; x64) AppleWebKit/537.36 (KHTML, like Gecko) Chrome/102.0.0.0 Safari/537.36" etag="RMlmWjp2jNkJoROX-L5V" version="18.1.2" type="github">
  <diagram id="FvNac4YPPAI5cvuXq2EJ" name="Page-1">
    <mxGraphModel dx="924" dy="500" grid="1" gridSize="10" guides="1" tooltips="1" connect="1" arrows="1" fold="1" page="1" pageScale="1" pageWidth="850" pageHeight="1100" math="0" shadow="0">
      <root>
        <mxCell id="0" />
        <mxCell id="1" parent="0" />
        <mxCell id="9yZlOrTwEsx5bloOOfXP-2" value="" style="aspect=fixed;html=1;points=[];align=center;image;fontSize=12;image=img/lib/azure2/databases/SQL_Database.svg;" vertex="1" parent="1">
          <mxGeometry x="228.75" y="330" width="52.5" height="70" as="geometry" />
        </mxCell>
        <mxCell id="9yZlOrTwEsx5bloOOfXP-3" value="" style="shadow=0;dashed=0;html=1;strokeColor=none;fillColor=#4495D1;labelPosition=center;verticalLabelPosition=bottom;verticalAlign=top;align=center;outlineConnect=0;shape=mxgraph.veeam.2d.web_ui;" vertex="1" parent="1">
          <mxGeometry x="220" y="213" width="70" height="60" as="geometry" />
        </mxCell>
        <mxCell id="9yZlOrTwEsx5bloOOfXP-4" value="" style="aspect=fixed;perimeter=ellipsePerimeter;html=1;align=center;shadow=0;dashed=0;spacingTop=3;image;image=img/lib/active_directory/database.svg;" vertex="1" parent="1">
          <mxGeometry x="220" y="100" width="70" height="51.8" as="geometry" />
        </mxCell>
        <mxCell id="9yZlOrTwEsx5bloOOfXP-5" value="Cloud" style="ellipse;shape=cloud;whiteSpace=wrap;html=1;align=center;" vertex="1" parent="1">
          <mxGeometry x="662" y="213" width="100" height="60" as="geometry" />
        </mxCell>
        <mxCell id="9yZlOrTwEsx5bloOOfXP-7" value="" style="sketch=0;outlineConnect=0;fontColor=#232F3E;gradientColor=none;fillColor=#3F8624;strokeColor=none;dashed=0;verticalLabelPosition=bottom;verticalAlign=top;align=center;html=1;fontSize=12;fontStyle=0;aspect=fixed;pointerEvents=1;shape=mxgraph.aws4.iot_analytics_pipeline;" vertex="1" parent="1">
          <mxGeometry x="448" y="215.16000000000003" width="100" height="53.85" as="geometry" />
        </mxCell>
        <mxCell id="9yZlOrTwEsx5bloOOfXP-8" value="" style="html=1;verticalLabelPosition=bottom;align=center;labelBackgroundColor=#ffffff;verticalAlign=top;strokeWidth=2;strokeColor=#0080F0;shadow=0;dashed=0;shape=mxgraph.ios7.icons.user;" vertex="1" parent="1">
          <mxGeometry x="110" y="216.08" width="50" height="52" as="geometry" />
        </mxCell>
        <mxCell id="9yZlOrTwEsx5bloOOfXP-14" value="" style="endArrow=classic;startArrow=classic;html=1;rounded=0;" edge="1" parent="1" source="9yZlOrTwEsx5bloOOfXP-8">
          <mxGeometry width="50" height="50" relative="1" as="geometry">
            <mxPoint x="490" y="290" as="sourcePoint" />
            <mxPoint x="220" y="242" as="targetPoint" />
          </mxGeometry>
        </mxCell>
        <mxCell id="9yZlOrTwEsx5bloOOfXP-15" value="" style="endArrow=classic;startArrow=classic;html=1;rounded=0;" edge="1" parent="1">
          <mxGeometry width="50" height="50" relative="1" as="geometry">
            <mxPoint x="253" y="330" as="sourcePoint" />
            <mxPoint x="253" y="273" as="targetPoint" />
          </mxGeometry>
        </mxCell>
        <mxCell id="9yZlOrTwEsx5bloOOfXP-16" value="" style="endArrow=classic;startArrow=classic;html=1;rounded=0;" edge="1" parent="1">
          <mxGeometry width="50" height="50" relative="1" as="geometry">
            <mxPoint x="253" y="210" as="sourcePoint" />
            <mxPoint x="253" y="152" as="targetPoint" />
          </mxGeometry>
        </mxCell>
        <mxCell id="9yZlOrTwEsx5bloOOfXP-17" value="&lt;b&gt;User&lt;/b&gt;" style="text;html=1;align=center;verticalAlign=middle;resizable=0;points=[];autosize=1;strokeColor=none;fillColor=none;" vertex="1" parent="1">
          <mxGeometry x="115" y="281" width="40" height="20" as="geometry" />
        </mxCell>
        <mxCell id="9yZlOrTwEsx5bloOOfXP-18" value="&lt;b&gt;Audit Database&lt;/b&gt;" style="text;html=1;align=center;verticalAlign=middle;resizable=0;points=[];autosize=1;strokeColor=none;fillColor=none;" vertex="1" parent="1">
          <mxGeometry x="205" y="80" width="100" height="20" as="geometry" />
        </mxCell>
        <mxCell id="9yZlOrTwEsx5bloOOfXP-19" value="&lt;b&gt;On-Premise Database(Source)&lt;/b&gt;" style="text;html=1;align=center;verticalAlign=middle;resizable=0;points=[];autosize=1;strokeColor=none;fillColor=none;" vertex="1" parent="1">
          <mxGeometry x="160" y="410" width="190" height="20" as="geometry" />
        </mxCell>
        <mxCell id="9yZlOrTwEsx5bloOOfXP-20" value="&lt;b&gt;Data Pipeline&lt;/b&gt;" style="text;html=1;align=center;verticalAlign=middle;resizable=0;points=[];autosize=1;strokeColor=none;fillColor=none;" vertex="1" parent="1">
          <mxGeometry x="453" y="187" width="90" height="20" as="geometry" />
        </mxCell>
        <mxCell id="9yZlOrTwEsx5bloOOfXP-21" value="&lt;b&gt;Destination&lt;/b&gt;" style="text;html=1;align=center;verticalAlign=middle;resizable=0;points=[];autosize=1;strokeColor=none;fillColor=none;" vertex="1" parent="1">
          <mxGeometry x="672" y="280" width="80" height="20" as="geometry" />
        </mxCell>
        <mxCell id="9yZlOrTwEsx5bloOOfXP-22" value="&lt;b&gt;User Interfacec&lt;/b&gt;" style="text;html=1;align=center;verticalAlign=middle;resizable=0;points=[];autosize=1;strokeColor=none;fillColor=none;" vertex="1" parent="1">
          <mxGeometry x="205" y="281" width="100" height="20" as="geometry" />
        </mxCell>
        <mxCell id="9yZlOrTwEsx5bloOOfXP-26" value="" style="endArrow=classic;html=1;rounded=0;" edge="1" parent="1">
          <mxGeometry relative="1" as="geometry">
            <mxPoint x="281" y="350" as="sourcePoint" />
            <mxPoint x="483" y="260" as="targetPoint" />
            <Array as="points">
              <mxPoint x="483" y="350" />
            </Array>
          </mxGeometry>
        </mxCell>
        <mxCell id="9yZlOrTwEsx5bloOOfXP-27" value="&lt;b&gt;Response&lt;/b&gt;" style="edgeLabel;resizable=0;html=1;align=center;verticalAlign=middle;" connectable="0" vertex="1" parent="9yZlOrTwEsx5bloOOfXP-26">
          <mxGeometry relative="1" as="geometry">
            <mxPoint x="-16" as="offset" />
          </mxGeometry>
        </mxCell>
        <mxCell id="9yZlOrTwEsx5bloOOfXP-30" value="" style="endArrow=classic;html=1;rounded=0;" edge="1" parent="1">
          <mxGeometry relative="1" as="geometry">
            <mxPoint x="523" y="270" as="sourcePoint" />
            <mxPoint x="283" y="390" as="targetPoint" />
            <Array as="points">
              <mxPoint x="523" y="290" />
              <mxPoint x="523" y="390" />
            </Array>
          </mxGeometry>
        </mxCell>
        <mxCell id="9yZlOrTwEsx5bloOOfXP-31" value="&lt;b&gt;Request&amp;nbsp;&lt;/b&gt;" style="edgeLabel;resizable=0;html=1;align=center;verticalAlign=middle;" connectable="0" vertex="1" parent="9yZlOrTwEsx5bloOOfXP-30">
          <mxGeometry relative="1" as="geometry">
            <mxPoint x="-50" as="offset" />
          </mxGeometry>
        </mxCell>
        <mxCell id="9yZlOrTwEsx5bloOOfXP-32" value="" style="endArrow=classic;html=1;rounded=0;entryX=0.06;entryY=0.522;entryDx=0;entryDy=0;entryPerimeter=0;" edge="1" parent="1" target="9yZlOrTwEsx5bloOOfXP-5">
          <mxGeometry relative="1" as="geometry">
            <mxPoint x="548" y="242.5" as="sourcePoint" />
            <mxPoint x="648" y="242.5" as="targetPoint" />
          </mxGeometry>
        </mxCell>
        <mxCell id="9yZlOrTwEsx5bloOOfXP-33" value="&lt;b&gt;Data Transfer&lt;/b&gt;" style="edgeLabel;resizable=0;html=1;align=center;verticalAlign=middle;" connectable="0" vertex="1" parent="9yZlOrTwEsx5bloOOfXP-32">
          <mxGeometry relative="1" as="geometry" />
        </mxCell>
        <mxCell id="9yZlOrTwEsx5bloOOfXP-35" value="" style="endArrow=classic;html=1;rounded=0;" edge="1" parent="1" target="9yZlOrTwEsx5bloOOfXP-7">
          <mxGeometry relative="1" as="geometry">
            <mxPoint x="293" y="242" as="sourcePoint" />
            <mxPoint x="523" y="260" as="targetPoint" />
          </mxGeometry>
        </mxCell>
        <mxCell id="9yZlOrTwEsx5bloOOfXP-36" value="&lt;b&gt;Trigger&lt;/b&gt;" style="edgeLabel;resizable=0;html=1;align=center;verticalAlign=middle;" connectable="0" vertex="1" parent="9yZlOrTwEsx5bloOOfXP-35">
          <mxGeometry relative="1" as="geometry" />
        </mxCell>
        <mxCell id="9yZlOrTwEsx5bloOOfXP-40" value="Block Diagram of ABC Framework" style="text;align=center;fontStyle=5;verticalAlign=middle;spacingLeft=3;spacingRight=3;strokeColor=none;rotatable=0;points=[[0,0.5],[1,0.5]];portConstraint=eastwest;fontSize=16;" vertex="1" parent="1">
          <mxGeometry x="180" y="460" width="440" height="50" as="geometry" />
        </mxCell>
      </root>
    </mxGraphModel>
  </diagram>
</mxfile>
